<svg width="48" height="48" viewBox="0 0 48 48" fill="none" xmlns="http://www.w3.org/2000/svg">
<circle cx="24.0704" cy="23.8309" r="23.2254" fill="#5D3277"/>
<g filter="url(#filter0_dd_29_204)">
<rect width="27.8704" height="27.8704" transform="translate(10.1353 9.89563)" fill="#5D3277"/>
<path fill-rule="evenodd" clip-rule="evenodd" d="M32.1994 22.6696H25.2318V15.702C25.2318 15.0599 24.7116 14.5408 24.0705 14.5408C23.4295 14.5408 22.9093 15.0599 22.9093 15.702V22.6696H15.9417C15.3006 22.6696 14.7804 23.1887 14.7804 23.8309C14.7804 24.4731 15.3006 24.9922 15.9417 24.9922H22.9093V31.9598C22.9093 32.602 23.4295 33.1211 24.0705 33.1211C24.7116 33.1211 25.2318 32.602 25.2318 31.9598V24.9922H32.1994C32.8404 24.9922 33.3607 24.4731 33.3607 23.8309C33.3607 23.1887 32.8404 22.6696 32.1994 22.6696Z" fill="#231F20"/>
<mask id="mask0_29_204" style="mask-type:luminance" maskUnits="userSpaceOnUse" x="14" y="14" width="20" height="20">
<path fill-rule="evenodd" clip-rule="evenodd" d="M32.1994 22.6696H25.2318V15.702C25.2318 15.0599 24.7116 14.5408 24.0705 14.5408C23.4295 14.5408 22.9093 15.0599 22.9093 15.702V22.6696H15.9417C15.3006 22.6696 14.7804 23.1887 14.7804 23.8309C14.7804 24.4731 15.3006 24.9922 15.9417 24.9922H22.9093V31.9598C22.9093 32.602 23.4295 33.1211 24.0705 33.1211C24.7116 33.1211 25.2318 32.602 25.2318 31.9598V24.9922H32.1994C32.8404 24.9922 33.3607 24.4731 33.3607 23.8309C33.3607 23.1887 32.8404 22.6696 32.1994 22.6696Z" fill="white"/>
</mask>
<g mask="url(#mask0_29_204)">
<g filter="url(#filter1_dd_29_204)">
<rect x="10.1353" y="9.89563" width="27.8704" height="27.8704" fill="white"/>
</g>
</g>
</g>
<defs>
<filter id="filter0_dd_29_204" x="8.13525" y="8.89563" width="31.8704" height="31.8705" filterUnits="userSpaceOnUse" color-interpolation-filters="sRGB">
<feFlood flood-opacity="0" result="BackgroundImageFix"/>
<feColorMatrix in="SourceAlpha" type="matrix" values="0 0 0 0 0 0 0 0 0 0 0 0 0 0 0 0 0 0 127 0" result="hardAlpha"/>
<feOffset dy="1"/>
<feGaussianBlur stdDeviation="0.5"/>
<feColorMatrix type="matrix" values="0 0 0 0 0 0 0 0 0 0 0 0 0 0 0 0 0 0 0.03 0"/>
<feBlend mode="normal" in2="BackgroundImageFix" result="effect1_dropShadow_29_204"/>
<feColorMatrix in="SourceAlpha" type="matrix" values="0 0 0 0 0 0 0 0 0 0 0 0 0 0 0 0 0 0 127 0" result="hardAlpha"/>
<feOffset dy="1"/>
<feGaussianBlur stdDeviation="1"/>
<feColorMatrix type="matrix" values="0 0 0 0 0 0 0 0 0 0 0 0 0 0 0 0 0 0 0.03 0"/>
<feBlend mode="normal" in2="effect1_dropShadow_29_204" result="effect2_dropShadow_29_204"/>
<feBlend mode="normal" in="SourceGraphic" in2="effect2_dropShadow_29_204" result="shape"/>
</filter>
<filter id="filter1_dd_29_204" x="8.13525" y="8.89563" width="31.8704" height="31.8705" filterUnits="userSpaceOnUse" color-interpolation-filters="sRGB">
<feFlood flood-opacity="0" result="BackgroundImageFix"/>
<feColorMatrix in="SourceAlpha" type="matrix" values="0 0 0 0 0 0 0 0 0 0 0 0 0 0 0 0 0 0 127 0" result="hardAlpha"/>
<feOffset dy="1"/>
<feGaussianBlur stdDeviation="0.5"/>
<feColorMatrix type="matrix" values="0 0 0 0 0 0 0 0 0 0 0 0 0 0 0 0 0 0 0.03 0"/>
<feBlend mode="normal" in2="BackgroundImageFix" result="effect1_dropShadow_29_204"/>
<feColorMatrix in="SourceAlpha" type="matrix" values="0 0 0 0 0 0 0 0 0 0 0 0 0 0 0 0 0 0 127 0" result="hardAlpha"/>
<feOffset dy="1"/>
<feGaussianBlur stdDeviation="1"/>
<feColorMatrix type="matrix" values="0 0 0 0 0 0 0 0 0 0 0 0 0 0 0 0 0 0 0.03 0"/>
<feBlend mode="normal" in2="effect1_dropShadow_29_204" result="effect2_dropShadow_29_204"/>
<feBlend mode="normal" in="SourceGraphic" in2="effect2_dropShadow_29_204" result="shape"/>
</filter>
</defs>
</svg>
